<?xml version="1.0" encoding="utf-8"?>
<!-- Generator: Adobe Illustrator 22.0.0, SVG Export Plug-In . SVG Version: 6.00 Build 0)  -->
<svg version="1.1" id="Capa_1" xmlns="http://www.w3.org/2000/svg" xmlns:xlink="http://www.w3.org/1999/xlink" x="0px" y="0px"
	 viewBox="0 0 220 77" style="enable-background:new 0 0 220 77;" xml:space="preserve">
<style type="text/css">
	.st0{display:none;fill-rule:evenodd;clip-rule:evenodd;fill:#153068;}
	.st1{fill-rule:evenodd;clip-rule:evenodd;fill:#FFFFFF;}
	.st2{fill-rule:evenodd;clip-rule:evenodd;fill:#E9B90D;}
	.st3{fill:#DC962F;}
</style>
<g>
	<rect x="1.3" y="0.8" class="st0" width="219" height="76.5"/>
	<g>
		<path class="st1" d="M193,20.3c-4.3,0.4-5.3,2.8-5.3,4.5v30.2h5.6V20.3"/>
		<path class="st1" d="M156.3,20.3l-0.3,0c0,0-0.1,0-0.1,0c-0.9,0-2.2,0.3-3.3,1.1c-1.1,0.7-2,1.9-2,3.5c0,0.9,0,1.5,0,2.3h-3.8v4.2
			h3.8v17.2c0,0.4,0.1,1,0.2,1.7c0.2,0.8,0.6,1.5,1.4,2.2c0.7,0.7,1.8,1.3,3.2,1.9c1.4,0.5,3.3,0.7,5.8,0.7h0.3v-4.4h-0.5
			c-1.1,0-1.9-0.1-2.5-0.3c-0.6-0.2-1.1-0.5-1.4-0.8c-0.4-0.3-0.5-0.6-0.6-0.9c-0.1-0.4-0.2-0.7-0.2-0.9V31.4h5.2v-4.2h-5.2V20.3z"
			/>
		<path class="st1" d="M144.3,29.8c-0.7-0.7-1.8-1.3-3.2-1.8c-1.4-0.5-3.3-0.7-5.8-0.7c-2.4,0-4.4,0.3-5.8,0.7
			c-1.4,0.5-2.5,1.1-3.2,1.8c-0.7,0.7-1.2,1.4-1.4,2.2c-0.2,0.7-0.2,1.2-0.2,1.7v21.4l0.3,0c2.6,0,5.1-1.6,5.4-4.7l0,0V34.4
			c0-0.3,0.1-0.5,0.2-0.9c0.1-0.3,0.3-0.6,0.7-0.9c0.4-0.3,0.9-0.5,1.5-0.7c0.6-0.2,1.6-0.3,2.7-0.3c1,0,1.9,0.1,2.5,0.3
			c0.6,0.2,1.1,0.5,1.5,0.8c0.3,0.3,0.5,0.6,0.6,0.9c0.1,0.3,0.1,0.7,0.1,0.9v20.5h5.7V33.7c0-0.4-0.1-1-0.3-1.7
			C145.5,31.3,145,30.5,144.3,29.8"/>
		<path class="st1" d="M166.3,53.7c1.7,1.2,4.4,1.8,7.9,1.8c1.8,0,3.2-0.1,4.5-0.5c1.3-0.3,2.4-0.8,3.3-1.4c0.9-0.6,1.5-1.3,1.9-2.1
			c0.4-0.8,0.6-1.7,0.6-2.6v-1.5h-5.3v0.3c0,0.9-0.3,1.9-1,2.6c-0.6,0.6-2.1,1-4.1,1c-1,0-1.8-0.1-2.4-0.3c-0.6-0.2-1.1-0.4-1.5-0.7
			c-0.4-0.3-0.6-0.6-0.8-0.9c-0.1-0.3-0.2-0.7-0.2-1v-1.2c0-0.4,0.1-1.1,0.2-1.4c0.1-0.3,0.3-0.8,0.5-1c0.3-0.2,0.4-0.4,0.7-0.5
			c0.4-0.2,0.5-0.2,0.8-0.3c0.3-0.1,0.5-0.2,1.2-0.3c0.7-0.1,6.6-0.8,7.3-1.1c1.5-0.4,2.7-1.3,3.5-2.4c0.8-1.1,1.2-2.7,1.2-4.1v-2.4
			c0-0.7-0.1-1.4-0.4-2.1c-0.3-0.8-0.8-1.5-1.6-2.2c-0.8-0.6-1.9-1.2-3.2-1.6c-1.4-0.4-3.1-0.6-5.3-0.6c-2.2,0-3.9,0.2-5.2,0.6
			c-1.3,0.4-2.4,0.9-3.2,1.6c-0.8,0.7-1.3,1.3-1.6,2.2c-0.3,0.8-0.4,1.5-0.4,2.1V49C163.7,50.9,164.6,52.5,166.3,53.7 M169.2,35.4
			c0-1.3,0.4-2.3,1.1-3c0.8-0.7,2.1-1,4.2-1c2,0,3.4,0.3,4.2,1c0.7,0.7,1.1,1.5,1.1,2.8c0,0.7-0.1,1.2-0.4,1.9
			c-0.3,0.5-0.5,0.8-0.9,1.1c-0.5,0.3-1,0.6-1.6,0.7c-1.1,0.2-5.5,0.5-6.2,0.6c-0.3,0.1-0.6,0.1-1,0.4c-0.3,0.2-0.5,0.4-0.6,0.7
			V35.4z"/>
		<path class="st1" d="M118.4,29c-1.7-1.2-4.4-1.8-7.9-1.8c-1.8,0-3.2,0.1-4.5,0.5c-1.3,0.3-2.4,0.8-3.3,1.4
			c-0.9,0.6-1.5,1.3-1.9,2.1c-0.4,0.8-0.6,1.7-0.6,2.6v1.5h5.3V35c0-0.9,0.3-1.9,1-2.6c0.6-0.6,2.1-1,4.1-1c1,0,1.8,0.1,2.4,0.3
			c0.6,0.2,1.1,0.4,1.5,0.7c0.4,0.3,0.6,0.6,0.8,0.9c0.1,0.3,0.2,0.7,0.2,1v1.2c0,0.4-0.1,1.1-0.2,1.4c-0.1,0.3-0.3,0.8-0.5,1
			c-0.3,0.2-0.4,0.4-0.7,0.5c-0.4,0.2-0.5,0.2-0.8,0.3c-0.3,0.1-0.5,0.2-1.2,0.3c-0.6,0.1-6.6,0.8-7.3,1.1c-1.5,0.4-2.7,1.3-3.5,2.4
			c-0.8,1.1-1.2,2.7-1.2,4.1V49c0,0.7,0.1,1.4,0.4,2.1c0.3,0.8,0.9,1.5,1.6,2.2c0.8,0.6,1.9,1.2,3.2,1.6c1.4,0.4,3.1,0.6,5.3,0.6
			c2.2,0,3.9-0.2,5.2-0.6c1.4-0.4,2.4-0.9,3.2-1.6c0.8-0.7,1.3-1.3,1.6-2.2c0.3-0.8,0.4-1.5,0.4-2.1V33.7
			C121,31.8,120.1,30.2,118.4,29 M115.4,47.3c0,1.3-0.4,2.3-1.1,3c-0.8,0.7-2.1,1-4.2,1c-2,0-3.4-0.3-4.2-1
			c-0.7-0.7-1.1-1.5-1.1-2.8c0-0.7,0.1-1.2,0.4-1.9c0.3-0.5,0.5-0.8,0.9-1.1c0.5-0.3,1-0.6,1.6-0.7c1.1-0.2,5.5-0.5,6.2-0.6
			c0.3-0.1,0.6-0.1,1-0.4c0.3-0.2,0.5-0.4,0.6-0.7V47.3z"/>
		<path class="st2" d="M121,27.2c0.7-3.5,8.4-2,10.8-4.8c0.6-0.7,1.1-2.8,0.1-4.3c-0.5-0.8-1.2-1.3-2.6-1.4c-1.6-0.2-3.2-0.2-4.8,0
			c-2.2,0.3-3.5,1.6-3.5,4.2C120.9,21.2,121,27.2,121,27.2"/>
		<path class="st3" d="M41.2,51.1v4c-2.1,0-3.8-0.3-5-0.8c-1.2-0.5-2.1-1.1-2.8-1.8c-0.6-0.7-1-1.4-1.2-2.2
			c-0.1-0.7-0.2-1.3-0.2-1.7v-1V30.5h-3.4v-3.8h3.4v-7.1h4.5v7.1h4.6v3.8h-4.6v16.7v0.5c0,0.3,0,0.7,0.1,1c0.1,0.4,0.3,0.7,0.6,1.1
			c0.3,0.4,0.8,0.7,1.4,0.9c0.6,0.2,1.4,0.3,2.3,0.3H41.2z"/>
		<path class="st3" d="M49.8,16.4v5.4h-4.5v-5.4H49.8z M45.3,27.2h4.5v27.9h-4.5V27.2z"/>
		<path class="st3" d="M68,34.5V34c0-0.4-0.1-0.7-0.2-1.1c-0.1-0.4-0.4-0.7-0.8-1c-0.4-0.3-0.8-0.6-1.4-0.8
			c-0.6-0.2-1.3-0.3-2.2-0.3c-1.8,0-3,0.4-3.6,1.1c-0.6,0.7-0.9,1.6-0.9,2.6v13c0,1.4,0.3,2.4,1,3c0.6,0.7,1.8,1,3.6,1
			c1.8,0,3-0.3,3.6-1c0.6-0.7,1-1.7,1-3h4.5v1.6c0,0.6-0.1,1.3-0.3,2.1c-0.2,0.8-0.7,1.5-1.4,2.1c-0.7,0.6-1.6,1.2-2.8,1.6
			c-1.2,0.4-2.7,0.6-4.6,0.6c-1.9,0-3.4-0.2-4.6-0.6c-1.2-0.4-2.1-1-2.8-1.6c-0.7-0.6-1.1-1.3-1.4-2.1c-0.2-0.8-0.3-1.5-0.3-2.1
			v-2.5v-12v-1.3c0-0.9,0.2-1.7,0.5-2.5c0.3-0.8,0.9-1.5,1.6-2.1c0.8-0.6,1.7-1.1,2.8-1.4c1.1-0.3,2.5-0.5,4.1-0.5
			c3.2,0,5.5,0.6,6.9,1.8c1.4,1.2,2.2,2.8,2.2,4.6v1.3H68z"/>
		<path class="st3" d="M90.7,55.1l-4.3-12.5c-0.5,0.2-1,0.3-1.5,0.5c-0.5,0.2-0.9,0.3-1.3,0.5c-0.5,0.1-0.9,0.3-1.3,0.5
			c-0.4,0.1-0.8,0.3-1.2,0.5c-0.3,0.2-0.6,0.5-0.9,0.8c-0.3,0.3-0.4,0.8-0.4,1.3v0.1v8.3h-4.5V16.3h4.5v24.1
			c0.3-0.1,0.7-0.2,1.2-0.4c0.5-0.2,1-0.4,1.5-0.6c0.5-0.2,1.1-0.4,1.6-0.6c0.5-0.2,1-0.3,1.4-0.5c0.2-0.1,0.4-0.1,0.6-0.2
			c0.2-0.1,0.4-0.1,0.6-0.2c0.9-0.3,1.5-0.8,1.8-1.3c0.2-0.6,0.4-1.1,0.4-1.6v-7.9h4.5v8.7c0,1-0.2,1.9-0.6,2.8
			c-0.4,0.9-1.1,1.7-2.1,2.3l4.9,14.2H90.7z"/>
	</g>
</g>
</svg>
